HIERARCHY
ROOT pelvis
{
  OFFSET 0 100 0
  CHANNELS 6 Xposition Yposition Zposition Zrotation Xrotation Yrotation
  JOINT pelvis_right_femur
  {
    OFFSET -10.78128 -3.44521 -0.5502486
    CHANNELS 3 Zrotation Xrotation Yrotation
    JOINT right_femur_tibia
    {
      OFFSET -0.8047443 -44.0398 -0.1307829
      CHANNELS 3 Zrotation Xrotation Yrotation
      JOINT right_tibia_foot
      {
        OFFSET 3.006224 -47.83518 -5
        CHANNELS 3 Zrotation Xrotation Yrotation
        End Site
        {
          OFFSET 0 -5 15
        }
      }
    }
  }
  JOINT pelvis_left_femur
  {
    OFFSET 10.78128 -3.44521 -0.5502486
    CHANNELS 3 Zrotation Xrotation Yrotation
    JOINT left_femur_tibia
    {
      OFFSET 0.8047443 -44.0398 -0.1307829
      CHANNELS 3 Zrotation Xrotation Yrotation
      JOINT left_tibia_foot
      {
        OFFSET -4.370144 -48.10324 -4.275266
        CHANNELS 3 Zrotation Xrotation Yrotation
        End Site
        {
          OFFSET 0 -5 15
        }
      }
    }
  }
  JOINT pelvis_spine1
  {
    OFFSET 0 6.468898 -3.129235
    CHANNELS 3 Zrotation Xrotation Yrotation
    JOINT spine1
    {
      OFFSET 0 23.15396 4.99043
      CHANNELS 3 Zrotation Xrotation Yrotation
      JOINT spine2
      {
        OFFSET 0 20.79997 -5.064912
        CHANNELS 3 Zrotation Xrotation Yrotation
        JOINT neck
        {
          OFFSET 0 14.38658 9.616178
          CHANNELS 3 Zrotation Xrotation Yrotation
          End Site
          {
            OFFSET 0 20 0
          }
        }
      }
      JOINT right_manubrium
      {
        OFFSET -5.722621 16.35077 3.967754
        CHANNELS 3 Zrotation Xrotation Yrotation
        JOINT right_clavicle
        {
          OFFSET -13.16364 1.694482 -4.693211
          CHANNELS 3 Zrotation Xrotation Yrotation
          JOINT right_humerus
          {
            OFFSET -28.5034 -0.3100689 -2.792744
            CHANNELS 3 Zrotation Xrotation Yrotation
            JOINT right_radius
            {
              OFFSET -25.15693 0.02248979 -1.271978
              CHANNELS 3 Zrotation Xrotation Yrotation
              End Site
              {
                OFFSET -15 0 0
              }
            }
          }
        }
      }
      JOINT left_manubrium
      {
        OFFSET 5.722621 16.35077 3.967754
        CHANNELS 3 Zrotation Xrotation Yrotation
        JOINT left_clavicle
        {
          OFFSET 13.16364 1.694482 -4.693211
          CHANNELS 3 Zrotation Xrotation Yrotation
          JOINT left_humerus
          {
            OFFSET 29.39168 -1.063119 -2.237045
            CHANNELS 3 Zrotation Xrotation Yrotation
            JOINT left_radius
            {
              OFFSET 24.59957 -0.9528479 0.9047498
              CHANNELS 3 Zrotation Xrotation Yrotation
              End Site
              {
                OFFSET 15 -0 -0
              }
            }
          }
        }
      }
    }
  }
}
MOTION
Frames: 15
Frame Time: 0.0416666666667
1651.679 91.01499 2585.494 6.904824 -3.214118 63.42221 4.695935 -17.61376 5.359932 -0 17.33187 -0 0.3948442 -2.84334 -10.00672 -3.398667 17.03328 -7.434449 -0 41.38341 -0 -9.03699 -11.60498 14.50609 -0.8488181 -0.4469284 2.586449 1.47547 9.91588 -7.832943 2.559074 21.90602 4.842891 2.074619 -16.92329 7.189472 1.77821 -13.34973 10.1562 91.54708 22.91646 -23.09725 -0 0 6.203048 -18.38845 12.49947 7.290618 6.418533 -21.56999 -3.9155 -82.09212 22.05474 4.211142 0 0 -24.48236 3.871846 7.550022 8.331616
1657.721 92.09676 2589.262 7.73946 -3.996968 62.83883 5.522366 -12.60743 6.225364 -0 19.6795 -0 -0.3815954 -4.248234 -9.656824 -2.965724 12.5261 -7.210683 -0 51.42354 -0 -9.678578 -8.868938 15.35872 -0.5320148 0.01693386 3.282461 1.544761 10.16432 -7.222525 2.782838 22.50406 4.326302 1.929516 -16.55471 6.866014 2.236754 -13.63928 10.48475 90.49521 22.7867 -21.48801 -0 0 6.905565 -17.94685 12.20828 7.273561 5.328585 -20.57498 -3.915312 -83.88705 22.87615 6.735385 0 0 -21.72009 2.433462 8.056038 10.13647
1663.353 93.46031 2592.784 8.294452 -4.298293 61.96535 5.632979 -7.499913 6.496173 -0 19.86255 -0 -1.292177 -6.099921 -8.829315 -2.642309 6.389415 -6.808598 -0 58.04441 -0 -9.888181 -7.269183 16.08086 -0.6079121 0.6198772 4.259427 1.490785 10.28068 -6.442396 2.945391 23.11149 3.952075 1.835632 -16.31212 6.618211 2.496016 -14.19597 10.7357 89.10966 23.10795 -19.4564 -0 0 8.308776 -17.65321 11.74193 7.486877 4.425096 -19.67767 -3.877807 -85.63595 23.91823 9.302176 0 0 -19.59205 0.8942394 8.173863 12.05338
1668.604 94.68231 2596.049 8.489261 -4.196698 60.96652 5.307036 -2.659049 6.324935 -0 18.31692 -0 -1.980796 -8.151874 -7.64473 -2.232774 -0.651588 -6.229091 -0 59.65167 -0 -9.620383 -6.695476 16.76629 -0.9048775 1.200062 5.288336 1.263251 10.29497 -5.578101 2.982581 23.57598 3.791148 1.822044 -16.1314 6.43657 2.549796 -15.04608 10.94931 87.42388 23.68024 -17.01284 -0 0 10.3706 -17.74827 11.26227 8.028762 3.924633 -18.9813 -3.785585 -87.20226 24.74714 11.70944 0 0 -18.16011 -0.2448453 8.040696 13.44819
1673.606 95.45477 2599.098 8.371024 -3.92524 59.97998 4.874471 1.765358 5.946368 -0 16.19324 -0 -2.269477 -10.29677 -6.357398 -1.581225 -7.647858 -5.517797 -0 56.37101 -0 -8.99784 -6.739823 17.50906 -1.190424 1.647312 6.138393 0.8960033 10.18814 -4.730707 2.913509 23.85061 3.77787 1.834571 -15.90103 6.295898 2.422405 -16.10995 11.12288 85.54015 24.18405 -14.2039 -0 0 12.91876 -18.2545 10.85045 8.87361 3.802566 -18.38931 -3.638317 -88.5381 25.16492 13.88069 0 0 -17.0682 -0.8853291 7.89588 14.18522
1678.538 95.65314 2601.993 7.995325 -3.668484 59.07615 4.520073 5.753951 5.558729 -0 14.54072 -0 -2.105121 -12.39994 -5.157768 -0.684146 -13.85262 -4.735994 -0 49.58472 -0 -8.219504 -6.966135 18.29355 -1.313432 1.896755 6.716958 0.46819 9.964385 -3.994406 2.781282 23.91919 3.835823 1.82977 -15.60156 6.176212 2.190166 -17.27441 11.24097 83.60378 24.42962 -11.21414 -0 0 15.727 -19.0903 10.53291 9.952184 3.904603 -17.77605 -3.447408 -89.66756 25.16748 15.87363 0 0 -15.96873 -1.204311 7.814286 14.50916
1683.588 95.31539 2604.803 7.405036 -3.475285 58.26516 4.238161 9.307845 5.285669 -0 13.98339 -0 -1.490816 -14.21373 -4.101951 0.3030588 -18.86976 -3.976208 -0 41.13539 -0 -7.459137 -7.105058 18.99301 -1.257592 1.90732 7.084808 0.05007947 9.682386 -3.435818 2.616705 23.75778 3.93867 1.814698 -15.31994 6.072163 1.954921 -18.44103 11.30142 81.77275 24.40738 -8.350327 -0 0 18.57715 -20.17162 10.31986 11.18671 4.07364 -17.09601 -3.230578 -90.63412 24.8296 17.80319 0 0 -14.72899 -1.421942 7.699062 14.74538
1688.929 94.59513 2607.597 6.684223 -3.294472 57.53345 3.894219 12.36829 5.177963 -0 14.86732 -0 -0.4844075 -15.38845 -3.180887 1.101893 -22.50946 -3.395715 -0 32.86019 -0 -6.827328 -7.098103 19.42572 -1.117407 1.65738 7.376865 -0.3221178 9.4274 -3.081806 2.443931 23.36102 4.086117 1.824653 -15.17909 5.989062 1.800484 -19.51091 11.31672 80.22901 24.19336 -5.986152 -0 0 21.23398 -21.4134 10.21334 12.45846 4.19978 -16.38382 -3.013889 -91.45644 24.26227 19.73851 0 0 -13.39166 -1.685456 7.427594 15.11511
1694.684 93.72157 2610.429 6.016694 -3.049571 56.88821 3.317095 14.78687 5.214584 -0 17.46543 -0 0.7713868 -15.54733 -2.420938 1.36901 -24.6209 -3.211458 -0 26.39456 -0 -6.380777 -7.061293 19.42694 -1.049687 1.16381 7.712119 -0.6463794 9.274415 -2.914524 2.293118 22.789 4.263272 1.884493 -15.2636 5.936861 1.76134 -20.3627 11.30484 79.20991 23.85214 -4.509186 -0 0 23.40255 -22.68884 10.19956 13.57275 4.217538 -15.71438 -2.84162 -92.11418 23.63041 21.63637 0 0 -12.07539 -2.058892 6.970142 15.69068
1700.888 92.95954 2613.329 5.659765 -2.706478 56.38895 2.412494 16.34306 5.308477 -0 21.96679 -0 2.045794 -14.46456 -1.927459 0.8399037 -25.0672 -3.603276 -0 22.80285 -0 -6.132294 -7.203044 18.94525 -1.204043 0.5102618 8.115405 -0.9392178 9.25823 -2.879847 2.193393 22.18561 4.431665 1.97983 -15.57307 5.931073 1.818663 -20.87341 11.27582 78.95869 23.42732 -4.189859 -0 0 24.76819 -23.79911 10.24625 14.2894 4.097138 -15.16313 -2.77111 -92.55253 23.15883 23.31889 0 0 -10.91436 -2.537227 6.408814 16.41372
1707.444 92.55416 2616.284 5.800221 -2.320438 56.14338 1.274835 16.80742 5.349538 -0 28.23654 -0 3.081728 -12.29983 -1.841387 -0.4631727 -23.82342 -4.562208 -0 22.06311 -0 -6.040477 -7.680577 18.15044 -1.629614 -0.1441517 8.46673 -1.205917 9.351173 -2.91689 2.15947 21.74372 4.552549 2.053505 -15.99628 5.999701 1.92684 -20.96498 11.2133 79.55036 22.99555 -4.959633 -0 0 25.12866 -24.49338 10.30896 14.43803 3.850972 -14.77148 -2.837264 -92.70181 23.06772 24.48272 0 0 -10.00765 -3.043153 5.878829 17.13449
1714.138 92.65982 2619.24 6.426549 -2.032913 56.26115 0.1884227 16.00617 5.2846 -0 35.63977 -0 3.707123 -9.607842 -2.264609 -2.175796 -21.05543 -5.852944 -0 23.06663 -0 -5.99786 -8.481558 17.41724 -2.220266 -0.6043395 8.542924 -1.421603 9.480516 -2.993728 2.197989 21.62206 4.605649 2.036311 -16.32076 6.176245 2.040366 -20.63246 11.07734 80.78479 22.65612 -6.357863 -0 0 24.51225 -24.57722 10.34691 14.03249 3.545446 -14.53308 -3.02789 -92.51242 23.43422 24.77963 0 0 -9.362735 -3.433155 5.506729 17.66417
1720.713 93.28893 2622.123 7.335451 -1.969853 56.79822 -0.5434262 13.79817 5.155929 -0 43.19695 -0 3.925383 -6.986399 -3.197384 -3.810099 -17.09044 -7.146299 -0 24.33369 -0 -5.86176 -9.482104 17.04736 -2.770791 -0.7324573 8.180372 -1.545409 9.604375 -3.143089 2.291622 21.82423 4.610784 1.902215 -16.37935 6.46663 2.131417 -19.97239 10.85963 82.32907 22.4894 -7.885156 -0 0 23.1808 -24.06348 10.36351 13.27808 3.28916 -14.44571 -3.302936 -91.95593 24.07529 24.02473 0 0 -9.000413 -3.540984 5.327039 17.82788
1726.973 94.3122 2624.857 8.190602 -2.106227 57.72551 -0.785619 10.04871 5.035426 -0 49.75641 -0 3.880761 -4.768514 -4.477648 -5.016648 -12.36685 -8.155746 -0 24.67729 -0 -5.523872 -10.60458 16.98967 -3.105242 -0.5352514 7.412731 -1.535692 9.762282 -3.482636 2.349127 22.14033 4.668146 1.710905 -16.25411 6.825649 2.21684 -19.19496 10.6267 83.90581 22.634 -9.397585 -0 0 21.5058 -23.21249 10.43983 12.48598 3.192511 -14.60473 -3.615151 -90.98358 24.6103 22.3456 0 0 -9.203975 -3.233791 5.193795 17.51365
1732.842 95.48793 2627.396 8.658316 -2.301831 58.9313 -0.6027276 4.799984 4.926085 -0 54.00928 -0 3.696088 -3.131631 -5.82639 -5.670184 -7.362922 -8.716131 -0 23.48784 -0 -4.988162 -11.86398 16.94684 -3.161352 -0.1384624 6.413294 -1.354732 9.995629 -4.135541 2.255506 22.31365 4.900797 1.568557 -16.17454 7.177499 2.326845 -18.5037 10.45824 85.33784 23.22954 -11.02917 -0 0 19.77919 -22.37447 10.66873 11.92605 3.327217 -15.16698 -3.920136 -89.5601 24.73268 20.01996 0 0 -10.41082 -2.503726 4.925405 16.74124
